# xmcd
# Copyright (C) 1995-1998 Ti Kan
#
# Track frame offsets:
#       150
#       20045
#       39022
#       51783
#
# Disc length: 898 seconds
#
# Revision: 0
# Processed by: cddbd v1.4PL0 Copyright (c) Steve Scherf et al.
# Submitted via: CD-Transfer v1.0
#
DISCID=27038004
DTITLE=Leena - Leena
DYEAR=2001
DGENRE=
TTITLE0=Happiness In Your Eyes
TTITLE1=Missing You
TTITLE2=Every Day Is Beautiful
TTITLE3=Whatever
EXTD=
EXTT0=
EXTT1=
EXTT2=
EXTT3=
PLAYORDER=
